<svg id="Layer_1" data-name="Layer 1" xmlns="http://www.w3.org/2000/svg" viewBox="0 0 59.41 106"><defs><style>.cls-1{fill:#4a8ab9;}</style></defs><title>Página Solo EPS</title><path class="cls-1" d="M33.15,79.51c1.72-2.14,3.36-4.35,5.05-6.51,7.4-9.49,13.89-19.53,18.34-30.77,2.55-6.43,3.79-13.08,2.09-19.94C55.32,8.94,43.66.07,27.51,0,20,.1,12,3.69,6.1,11.29-.58,19.87-1.48,29.49,2,39.54c5.24,15.26,14.68,28,24.8,40.28C28.69,82.16,31.22,81.92,33.15,79.51ZM15.75,29.22A13.82,13.82,0,0,1,29.44,15.55a14,14,0,0,1,14,13.84A14.05,14.05,0,0,1,29.55,43.18,13.82,13.82,0,0,1,15.75,29.22Z"/><ellipse class="cls-1" cx="29.7" cy="97.35" rx="27.04" ry="8.65"/></svg>