<?xml version="1.0" encoding="UTF-8"?>
<svg id="Capa_2" data-name="Capa 2" xmlns="http://www.w3.org/2000/svg" viewBox="0 0 112.57 111.43">
  <defs>
    <style>
      .cls-1 {
        fill: #3188c0;
      }
    </style>
  </defs>
  <g id="Capa_1-2" data-name="Capa 1">
    <g>
      <path class="cls-1" d="M72.44,0c-15.05,0-27.24,12.19-27.24,27.24s12.19,27.24,27.24,27.24,27.24-12.19,27.24-27.24S87.48,0,72.44,0ZM86.34,19.1l-16.84,20.48c-.39.48-1.08.53-1.53.12-2.6-2.37-9.82-8.46-9.72-9.06.06-.33,1.78-1.86,2.88-3.01.51-.54,1.36-.57,1.94-.08l5.07,4.49,14.16-17.48c.29-.17.65-.03.93.11.34.19,2,1.58,3.04,2.56.53.5.56,1.3.11,1.86h-.03Z"/>
      <path class="cls-1" d="M.02,70.78c.31-1.02,2.53-.36,3.19-.34,11,.19,14.74-6.21,23.41-10.71,7.07-3.66,12.18-2.85,19.69-2.79,4.99.05,11.88-.59,16.59-.02,5.18.64,5.53,9.58.59,11.03-4.56,1.35-12.05-.42-16.89.4-4.21.71-4.6,6.38-.4,7.64l24.57,7.41c1.61.22,2.09.03,3.44-.7,6.91-3.75,14.97-9.84,21.65-14.35,1.92-1.3,4.28-3.59,6.46-4.2,7.92-2.18,13.65,6.86,7.93,12.91-8.17,6.34-16.36,12.67-24.39,19.2-5.08,4.12-10.24,9.19-15.4,13.02-2.94,2.18-5.02,2.54-8.65,1.78-17.54-4.38-35.23-11.23-52.82-15.15-1.39-.31-2.99-.67-4.38-.82-.68-.08-4.62.25-4.62-.84v-23.44l.02-.03Z"/>
    </g>
  </g>
</svg>