<svg id="Layer_1" data-name="Layer 1" xmlns="http://www.w3.org/2000/svg" xmlns:xlink="http://www.w3.org/1999/xlink" viewBox="0 0 200 200"><defs><style>.cls-1{fill:url(#linear-gradient);}.cls-2{fill:#2d6f9c;}.cls-3{fill:#fff;}</style><linearGradient id="linear-gradient" x1="122.8" y1="182.95" x2="73.08" y2="96.82" gradientUnits="userSpaceOnUse"><stop offset="0" stop-color="#3179ab"/><stop offset="1" stop-color="#4f97c2"/></linearGradient></defs><title>IC</title><path class="cls-1" d="M14.7,149c0-5.09,0-10.18,0-15.27,0-3.64,1-4.49,4.53-4.64,6.25-.25,12.08-1.79,17.19-5.68C42,119.16,47.57,115,53.32,111A30.12,30.12,0,0,1,70.1,105.6c12.42-.21,24.84-.12,37.26-.15,1.4,0,2.81-.06,4.21,0a7.71,7.71,0,0,1,7.78,6.84,12.66,12.66,0,0,1-1.44,8.39,9.37,9.37,0,0,1-8.06,5c-7.93.31-15.87.42-23.8.59a3.59,3.59,0,0,0-3.91,3.48c-.32,2.44.48,3.86,2.76,4.44,7.52,1.89,15.06,3.69,22.59,5.53,4.73,1.16,9.49,2.23,14.19,3.51a9.28,9.28,0,0,0,8.21-1.4q10.85-7.65,21.67-15.36c5.32-3.77,10.55-7.68,16-11.32,3.68-2.47,7.86-3.19,11.92-1.09s5.75,5.65,5.86,10.1a12.81,12.81,0,0,1-4.69,10.19c-5.39,4.82-10.86,9.55-16.32,14.31-8.94,7.79-17.86,15.59-26.85,23.33-3.29,2.82-6.64,5.58-10.13,8.16A25.74,25.74,0,0,1,110.76,185c-6.48-.19-12.69-1.78-18.91-3.31-12.84-3.17-25.66-6.46-38.52-9.52a108.47,108.47,0,0,0-24-2.78c-3.18,0-6.35-.15-9.53-.19-3.69,0-5-1.29-5-4.94q0-7.63,0-15.27Z"/><path class="cls-2" d="M164.15,58.28c-.76,17.24-8.4,30.68-24.42,38.65-14.86,7.38-33.57,4.15-45.47-7.39A43.78,43.78,0,0,1,80.94,61.86,42.89,42.89,0,0,1,105.48,18.6a41.25,41.25,0,0,1,49.2,12.08,43.87,43.87,0,0,1,9,20.89C164,53.64,164,55.75,164.15,58.28Zm-48.1,6.28-.63-.68c-2.57-2.77-5.1-5.58-7.72-8.31A4.69,4.69,0,1,0,100.89,62q5.58,6.18,11.23,12.31c2.81,3.06,5.64,3,8.4-.2q7.91-9,15.86-17.95L145,46.42a5,5,0,0,0,1.47-4.07A4.65,4.65,0,0,0,143,38.21c-2.16-.66-3.84.2-5.22,1.75-4.53,5.09-9,10.22-13.53,15.33C121.57,58.36,118.84,61.42,116.05,64.56Z"/><path class="cls-3" d="M116.05,64.56c2.79-3.14,5.52-6.2,8.23-9.27,4.51-5.11,9-10.24,13.53-15.33,1.38-1.55,3.06-2.41,5.22-1.75a4.65,4.65,0,0,1,3.43,4.14A5,5,0,0,1,145,46.42l-8.61,9.76q-7.94,9-15.86,17.95c-2.76,3.15-5.59,3.26-8.4.2Q106.48,68.19,100.89,62a4.69,4.69,0,1,1,6.81-6.45c2.62,2.73,5.15,5.54,7.72,8.31Z"/></svg>