<svg id="Layer_1" data-name="Layer 1" xmlns="http://www.w3.org/2000/svg" xmlns:xlink="http://www.w3.org/1999/xlink" viewBox="0 0 200 200"><defs><style>.cls-1{fill:url(#linear-gradient);}.cls-2{fill:#9acdeb;}.cls-3{fill:#2d6f9c;}</style><linearGradient id="linear-gradient" x1="139.98" y1="182.42" x2="60.02" y2="43.93" gradientUnits="userSpaceOnUse"><stop offset="0" stop-color="#3179ab"/><stop offset="1" stop-color="#4f97c2"/></linearGradient></defs><title>IC</title><path class="cls-1" d="M150.36,171.43H49.64a32.22,32.22,0,0,1-32.22-32.21V87.13A32.23,32.23,0,0,1,49.64,54.91H150.36a32.23,32.23,0,0,1,32.22,32.22v52.09A32.22,32.22,0,0,1,150.36,171.43Z"/><path class="cls-2" d="M71.77,100.25H85.5a1.58,1.58,0,0,0,1.58-1.58V84.94a6.23,6.23,0,0,1,6.22-6.22h13.4a6.23,6.23,0,0,1,6.22,6.22V98.67a1.58,1.58,0,0,0,1.58,1.58h13.73a6.22,6.22,0,0,1,6.22,6.22v13.4a6.21,6.21,0,0,1-6.22,6.22H114.5a1.58,1.58,0,0,0-1.58,1.58V141.4a6.22,6.22,0,0,1-6.22,6.22H93.3a6.22,6.22,0,0,1-6.22-6.22V127.67a1.58,1.58,0,0,0-1.58-1.58H71.77a6.21,6.21,0,0,1-6.22-6.22v-13.4A6.22,6.22,0,0,1,71.77,100.25Z"/><path class="cls-3" d="M124.22,54.91h16.31v-7.1a19.25,19.25,0,0,0-19.25-19.24H78.72A19.25,19.25,0,0,0,59.47,47.81v7.1H76.23V48.12a4,4,0,0,1,4-4h40a4,4,0,0,1,4,4Z"/></svg>